PathFileType	4	(X/Y/Z)	Walk4.trc
DataRate	CameraRate	NumFrames	NumMarkers	Units	OrigDataRate	OrigDataStartFrame	OrigNumFrames
200.000000	200.000000	8	61	mm	200.000000	242	476
Frame#	Times		LFHD		RFHD		CLAV		LASI		RASI		RACR1		RUA1		RWRU		RCAR		LACR1		LUA1		LWRU		LCAR		RTH3		RTB1		LTH1		LTH2		LTH4		LLFC		LTB1		LTB2		LTB4		LTH3		LFA1		RTH2		LToe		LTB3		STRN		RTB4		LBHD		RWRR		RTB3		RMT5		RFA1		RMFC		RToe		RTH4		RTH1		RLFC		RMT1		RTB2		LElbow		RMMAL		LWRR		LMFC		T10		RElbow		LPSI		LMT1		RBack		LCAL		RBHD		LMMAL		RPSI		RElbowM		RLMAL		RCAL		C7		LMT5		LElbowM		LLMAL
			X1	Y1	Z1	X2	Y2	Z2	X3	Y3	Z3	X4	Y4	Z4	X5	Y5	Z5	X6	Y6	Z6	X7	Y7	Z7	X8	Y8	Z8	X9	Y9	Z9	X10	Y10	Z10	X11	Y11	Z11	X12	Y12	Z12	X13	Y13	Z13	X14	Y14	Z14	X15	Y15	Z15	X16	Y16	Z16	X17	Y17	Z17	X18	Y18	Z18	X19	Y19	Z19	X20	Y20	Z20	X21	Y21	Z21	X22	Y22	Z22	X23	Y23	Z23	X24	Y24	Z24	X25	Y25	Z25	X26	Y26	Z26	X27	Y27	Z27	X28	Y28	Z28	X29	Y29	Z29	X30	Y30	Z30	X31	Y31	Z31	X32	Y32	Z32	X33	Y33	Z33	X34	Y34	Z34	X35	Y35	Z35	X36	Y36	Z36	X37	Y37	Z37	X38	Y38	Z38	X39	Y39	Z39	X40	Y40	Z40	X41	Y41	Z41	X42	Y42	Z42	X43	Y43	Z43	X44	Y44	Z44	X45	Y45	Z45	X46	Y46	Z46	X47	Y47	Z47	X48	Y48	Z48	X49	Y49	Z49	X50	Y50	Z50	X51	Y51	Z51	X52	Y52	Z52	X53	Y53	Z53	X54	Y54	Z54	X55	Y55	Z55	X56	Y56	Z56	X57	Y57	Z57	X58	Y58	Z58	X59	Y59	Z59	X60	Y60	Z60	X61	Y61	Z61

242	1.21	-115.65	1583.8	-43.922	-116.14	1587	55.733	-149.74	1308.4	8.9512	-166.96	909.42	-106.48	-176.67	903.14	142.51	-210.61	1343.5	176.35	-207.24	1173.4	228.26	-71.134	789.83	246.96	-69.394	725.54	299.71	-229.51	1356.7	-140.2	-268.42	1190	-206.7	-275.34	788.33	-264	-313.33	727.91	-297.68	-203.97	560.98	180.65	-274.4	319.95	128.89	-194.67	737.68	-174.29	-126.44	669.48	-136.85	-182.37	654.64	-154.85	-143.32	435.85	-101.98	-116.16	339.05	-29.344	-144.27	250.27	-80.126	-135.28	255.22	-19.609	-167.72	572.66	-131.22	-315.38	907.27	-268.47	-157.39	654.37	168.79	-17.927	27.419	1.9438	-148.52	172.44	-8.8506	-126.13	1174.1	14.346	-352.14	279.5	124.71	-258.27	1518.9	-65.264	-124.72	772.77	286.24	-428.65	240.07	117.03	-547.6	116.68	142.43	-145.8	890.11	283.11	-220.37	408.98	31.419	-493.81	52.269	103.13	-209.9	644.21	192.81	-213.11	730.14	209.15	-209.12	412.1	160.37	-516.75	95.298	64.946	-374.53	319.32	165.34	-320.29	1042.7	-234.36	-527.67	228.55	55.526	-344.11	792.03	-259.38	-170.75	433.16	27.853	-334.09	1197.9	16.945	-211.38	1006.3	261.67	-343.6	959.98	-35.734	-75.163	30.286	26.967	-333.49	1284.1	90.444	-267.23	37.073	-9.8467	-256.73	1528.9	77.884	-200.05	84.976	30.309	-345.01	950.58	64.468	-237.63	998.51	186.25	-551.34	233.75	134.9	-595.79	262.87	90.454	-263.39	1408.8	11.122	-103.77	24.401	-57.155	-334.18	1022.6	-163.06	-208.23	62.575	-50.043
243	1.215	-107.74	1585.1	-43.859	-108.2	1588.3	55.794	-142.11	1310	9.0425	-159.2	910.51	-106.43	-169.02	905.2	142.47	-203.42	1344.8	176.47	-200.54	1174.7	228.23	-68.29	788.99	247.17	-67.585	724.67	299.94	-221.54	1358.4	-140.15	-259.1	1191.4	-206.98	-257.83	789.96	-264.4	-294.08	728.74	-298.41	-191.55	563.27	180.63	-257.66	321.97	128.47	-188.24	738.52	-174.01	-121.09	669.36	-136.39	-177.16	655.26	-154.69	-141.55	435.74	-102.01	-115.01	338.82	-29.432	-143.47	250.11	-80.216	-134.54	255.05	-19.696	-163.72	573.06	-131.24	-300.76	907.8	-269.13	-146.38	657.38	169.14	-17.805	27.32	1.7315	-148.07	172.34	-8.9331	-118.56	1175.7	14.703	-335.1	281	124.36	-250.53	1520.6	-65.143	-122.19	772.86	286.44	-411.28	241	116.76	-526.82	116.87	142.59	-141.43	890.59	283.05	-204.21	411.49	30.997	-471.28	53.896	103.54	-198.95	646.48	192.96	-203.72	732.21	209.31	-193.42	414.56	160.11	-495.59	95.831	65.179	-357.81	320.8	164.81	-308.98	1043.4	-235.15	-510.03	228.41	54.965	-326.66	791.94	-260.05	-169.32	433.1	27.694	-326.39	1199.4	16.524	-205.14	1007.6	261.29	-335.75	961.53	-36.169	-75.187	30.323	26.978	-325.94	1285.5	90.099	-267.2	37.227	-9.9524	-248.92	1530.6	77.993	-200	85.133	30.234	-337.3	952.17	64.066	-231.34	1000	185.93	-533.84	233.3	134.41	-579.46	261.05	89.745	-255.76	1410.3	11.201	-103.76	24.435	-57.156	-322.8	1022.9	-163.91	-208.16	62.647	-50.103
244	1.22	-99.855	1586.4	-43.764	-100.29	1589.6	55.888	-134.49	1311.5	9.1077	-151.44	911.57	-106.33	-161.35	907.27	142.43	-196.23	1346.2	176.57	-193.9	1176	228.19	-65.479	788.26	247.41	-65.81	723.91	300.19	-213.59	1360.1	-140.12	-249.83	1192.8	-207.27	-240.27	791.8	-264.73	-274.74	729.79	-299.01	-179.21	565.67	180.64	-240.91	324.05	128.11	-181.81	739.34	-173.67	-115.79	669.24	-135.86	-171.99	655.85	-154.47	-139.89	435.66	-102.01	-113.95	338.63	-29.454	-142.71	249.99	-80.258	-133.86	254.93	-19.73	-159.76	573.46	-131.21	-286.11	908.44	-269.74	-135.48	660.47	169.56	-17.678	27.222	1.53	-147.64	172.27	-8.975	-111	1177.3	15.035	-317.94	282.4	124.06	-242.82	1522.2	-65.011	-119.68	773.05	286.66	-393.7	241.69	116.54	-505.68	116.63	142.71	-137.1	891.15	283.01	-188.15	414.14	30.604	-448.32	55.273	103.89	-188.08	648.81	193.17	-194.42	734.32	209.53	-177.81	417.2	159.85	-474.02	96.027	65.387	-341.07	322.16	164.3	-297.68	1044.1	-235.92	-492.13	227.81	54.421	-309.12	792.02	-260.62	-168.07	433.08	27.563	-318.71	1200.8	16.077	-198.97	1008.9	260.91	-327.91	963.06	-36.577	-75.2	30.347	27	-318.4	1286.8	89.733	-267.16	37.41	-10.045	-241.14	1532.2	78.115	-199.95	85.303	30.174	-329.58	953.77	63.696	-225.12	1001.6	185.63	-516.1	232.36	133.92	-562.87	258.66	89.047	-248.15	1411.7	11.26	-103.75	24.465	-57.139	-311.42	1023.3	-164.73	-208.08	62.747	-50.146
245	1.225	-91.996	1587.7	-43.64	-92.412	1590.8	56.011	-126.88	1313.1	9.1461	-143.68	912.59	-106.19	-153.68	909.34	142.42	-189.05	1347.6	176.63	-187.31	1177.3	228.13	-62.689	787.63	247.7	-64.062	723.27	300.47	-205.66	1361.7	-140.11	-240.59	1194.2	-207.58	-222.67	793.84	-264.96	-255.33	731.05	-299.49	-166.94	568.14	180.67	-224.14	326.18	127.83	-175.39	740.12	-173.29	-110.54	669.11	-135.26	-166.85	656.42	-154.19	-138.32	435.62	-101.96	-112.98	338.5	-29.413	-141.97	249.92	-80.255	-133.24	254.84	-19.714	-155.85	573.88	-131.14	-271.43	909.2	-270.3	-124.67	663.63	170.02	-17.548	27.127	1.3396	-147.24	172.23	-8.9791	-103.43	1178.9	15.338	-300.67	283.7	123.83	-235.12	1523.9	-64.874	-117.19	773.33	286.89	-375.91	242.13	116.37	-484.24	115.98	142.81	-132.82	891.76	282.98	-172.19	416.89	30.239	-424.99	56.393	104.2	-177.29	651.19	193.42	-185.23	736.44	209.8	-162.31	419.99	159.62	-452.08	95.888	65.585	-324.32	323.38	163.82	-286.41	1044.8	-236.69	-473.96	226.76	53.899	-291.49	792.29	-261.1	-166.98	433.1	27.46	-311.03	1202.2	15.605	-192.87	1010.2	260.53	-320.07	964.55	-36.955	-75.198	30.357	27.034	-310.87	1288.2	89.345	-267.11	37.625	-10.121	-233.38	1533.8	78.244	-199.88	85.487	30.13	-321.85	955.35	63.361	-218.96	1003.1	185.34	-498.11	230.92	133.44	-545.99	255.72	88.358	-240.56	1413.2	11.295	-103.72	24.492	-57.105	-300.07	1023.8	-165.51	-207.98	62.874	-50.172
246	1.23	-84.158	1589	-43.493	-84.559	1592	56.157	-119.27	1314.6	9.1579	-135.93	913.58	-106.01	-146	911.38	142.41	-181.87	1348.9	176.66	-180.75	1178.5	228.05	-59.908	787.09	248.03	-62.332	722.72	300.78	-197.74	1363.4	-140.12	-231.39	1195.6	-207.91	-205.05	796.08	-265.11	-235.88	732.53	-299.85	-154.76	570.68	180.72	-207.37	328.34	127.63	-168.98	740.88	-172.86	-105.35	668.96	-134.59	-161.74	656.96	-153.86	-136.85	435.62	-101.88	-112.1	338.42	-29.318	-141.28	249.89	-80.211	-132.66	254.79	-19.654	-152	574.3	-131.03	-256.74	910.06	-270.79	-113.96	666.84	170.54	-17.415	27.035	1.1602	-146.85	172.24	-8.9493	-95.865	1180.5	15.605	-283.3	284.89	123.65	-227.43	1525.6	-64.738	-114.7	773.68	287.14	-357.93	242.33	116.23	-462.52	114.92	142.9	-128.57	892.42	282.96	-156.36	419.71	29.9	-401.36	57.254	104.49	-166.57	653.6	193.7	-176.11	738.58	210.12	-146.94	422.9	159.4	-429.81	95.419	65.785	-307.57	324.45	163.38	-275.17	1045.6	-237.46	-455.54	225.26	53.403	-273.81	792.74	-261.48	-166.05	433.17	27.39	-303.36	1203.5	15.111	-186.82	1011.5	260.16	-312.24	966	-37.299	-75.181	30.355	27.081	-303.34	1289.5	88.932	-267.05	37.871	-10.174	-225.64	1535.3	78.375	-199.79	85.688	30.108	-314.12	956.91	63.062	-212.86	1004.7	185.06	-479.9	229.01	132.96	-528.83	252.26	87.68	-232.98	1414.6	11.3	-103.68	24.516	-57.052	-288.73	1024.3	-166.26	-207.88	63.031	-50.177
247	1.235	-76.339	1590.3	-43.328	-76.734	1593.2	56.322	-111.68	1316.1	9.1441	-128.18	914.51	-105.81	-138.31	913.38	142.41	-174.69	1350.2	176.65	-174.2	1179.7	227.94	-57.124	786.63	248.4	-60.613	722.27	301.13	-189.83	1365	-140.15	-222.22	1197	-208.26	-187.43	798.51	-265.17	-216.38	734.22	-300.07	-142.66	573.27	180.79	-190.63	330.53	127.51	-162.59	741.59	-172.4	-100.2	668.8	-133.88	-156.66	657.47	-153.47	-135.46	435.66	-101.77	-111.27	338.39	-29.178	-140.61	249.89	-80.13	-132.13	254.78	-19.556	-148.18	574.72	-130.89	-242.04	911.02	-271.24	-103.34	670.09	171.09	-17.28	26.946	0.99136	-146.46	172.28	-8.8902	-88.29	1182.1	15.833	-265.86	285.95	123.53	-219.76	1527.2	-64.608	-112.21	774.09	287.39	-339.77	242.27	116.15	-440.56	113.48	142.98	-124.35	893.11	282.96	-140.67	422.59	29.59	-377.46	57.86	104.78	-155.92	656	194	-167.08	740.7	210.48	-131.69	425.92	159.2	-407.24	94.632	65.997	-290.83	325.36	162.97	-263.96	1046.4	-238.22	-436.87	223.32	52.937	-256.06	793.36	-261.77	-165.26	433.31	27.357	-295.7	1204.8	14.598	-180.82	1012.8	259.79	-304.4	967.4	-37.607	-75.147	30.34	27.138	-295.83	1290.8	88.494	-266.98	38.152	-10.2	-217.92	1536.8	78.501	-199.68	85.906	30.11	-306.38	958.43	62.801	-206.79	1006.2	184.78	-461.46	226.64	132.48	-511.37	248.29	87.012	-225.42	1415.9	11.27	-103.63	24.537	-56.981	-277.43	1024.9	-166.97	-207.76	63.219	-50.159
248	1.24	-68.537	1591.5	-43.15	-68.935	1594.2	56.499	-104.08	1317.5	9.1061	-120.44	915.39	-105.6	-130.61	915.32	142.42	-167.51	1351.4	176.6	-167.65	1180.9	227.81	-54.327	786.25	248.81	-58.896	721.89	301.52	-181.92	1366.5	-140.2	-213.06	1198.4	-208.62	-169.8	801.12	-265.14	-196.86	736.12	-300.17	-130.64	575.87	180.87	-173.93	332.72	127.48	-156.22	742.26	-171.89	-95.101	668.61	-133.11	-151.61	657.95	-153.05	-134.15	435.73	-101.64	-110.5	338.4	-29.003	-139.98	249.95	-80.02	-131.62	254.81	-19.427	-144.42	575.14	-130.71	-227.33	912.07	-271.62	-92.824	673.34	171.69	-17.143	26.861	0.83227	-146.08	172.35	-8.8069	-80.705	1183.6	16.018	-248.35	286.89	123.48	-212.1	1528.7	-64.489	-109.71	774.55	287.65	-321.45	241.97	116.11	-418.36	111.68	143.06	-120.15	893.83	282.96	-125.11	425.49	29.31	-353.34	58.221	105.08	-145.35	658.38	194.33	-158.12	742.8	210.87	-116.6	429.03	159.02	-384.41	93.541	66.228	-274.12	326.08	162.61	-252.8	1047.3	-238.98	-417.96	220.95	52.504	-238.27	794.16	-261.96	-164.59	433.51	27.364	-288.04	1206	14.069	-174.87	1014.1	259.43	-296.58	968.73	-37.877	-75.096	30.312	27.208	-288.32	1292	88.031	-266.91	38.467	-10.195	-210.22	1538.1	78.617	-199.54	86.144	30.139	-298.63	959.9	62.576	-200.75	1007.7	184.5	-442.8	223.83	132.02	-493.6	243.83	86.358	-217.86	1417.2	11.201	-103.58	24.558	-56.892	-266.17	1025.4	-167.66	-207.64	63.441	-50.115
249	1.245	-60.748	1592.7	-42.965	-61.158	1595.2	56.683	-96.486	1318.8	9.0458	-112.71	916.2	-105.38	-122.91	917.19	142.44	-160.32	1352.6	176.51	-161.09	1182.1	227.64	-51.509	785.92	249.27	-57.175	721.57	301.94	-174	1368	-140.29	-203.92	1199.7	-209	-152.2	803.91	-265.01	-177.33	738.22	-300.14	-118.71	578.49	180.98	-157.27	334.9	127.54	-149.86	742.87	-171.36	-90.057	668.38	-132.31	-146.59	658.39	-152.59	-132.9	435.83	-101.48	-109.78	338.45	-28.805	-139.38	250.04	-79.887	-131.13	254.88	-19.277	-140.7	575.55	-130.5	-212.64	913.2	-271.96	-82.402	676.59	172.31	-17.004	26.779	0.68205	-145.7	172.46	-8.7044	-73.109	1185.1	16.159	-230.79	287.7	123.48	-204.44	1530.2	-64.387	-107.19	775.04	287.92	-302.97	241.43	116.1	-395.96	109.56	143.15	-115.96	894.57	282.99	-109.71	428.4	29.063	-329.02	58.352	105.4	-134.84	660.73	194.67	-149.22	744.85	211.3	-101.65	432.2	158.86	-361.32	92.167	66.483	-257.43	326.61	162.3	-241.69	1048.1	-239.73	-398.81	218.18	52.108	-220.46	795.13	-262.06	-164.01	433.78	27.41	-280.38	1207.1	13.526	-168.95	1015.3	259.07	-288.75	969.98	-38.108	-75.027	30.273	27.287	-280.81	1293.1	87.542	-266.82	38.819	-10.155	-202.54	1539.4	78.718	-199.36	86.405	30.196	-290.87	961.31	62.388	-194.73	1009.2	184.21	-423.92	220.6	131.58	-475.52	238.91	85.721	-210.31	1418.4	11.092	-103.52	24.577	-56.783	-254.94	1026	-168.32	-207.52	63.697	-50.043
